<svg xmlns="http://www.w3.org/2000/svg" xmlns:xlink="http://www.w3.org/1999/xlink" width="502" height="222" viewBox="0 0 502 222">
  <defs>
    <clipPath id="clip-path">
      <rect id="Rect치ngulo_4559" data-name="Rect치ngulo 4559" width="408.258" height="127.896" fill="currentColor"/>
    </clipPath>
  </defs>
  <g id="Simbolo_Infinity" data-name="Simbolo Infinity" transform="translate(0.555 0.286)" style="isolation: isolate">
    <rect id="Rect치ngulo_4558" data-name="Rect치ngulo 4558" width="502" height="222" transform="translate(-0.555 -0.286)" fill="none"/>
    <g id="Grupo_890" data-name="Grupo 890" transform="translate(52.938 48.349)">
      <g id="Grupo_889" data-name="Grupo 889" transform="translate(0 0)" clip-path="url(#clip-path)">
        <path id="Trazado_649" data-name="Trazado 649" d="M393.021,50.414c-2.874-6.909-10.489-9.925-16.962-12.466Q347.921,26.891,319.2,17.42q-14.477-4.775-29.084-9.139c-8.96-2.679-18.008-5.742-27.227-7.4C255.026-.536,246.406-.68,239.433,3.792c-6.483,4.16-10.06,11.166-12.413,18.277-2.978,8.989-4.891,18.4-7.208,27.571q-.761,3.026-1.524,6.047c-2.98-.893-5.99-1.675-9.051-2.28a72.1,72.1,0,0,0-11.51-1.3q-.7-.017-1.4,0a72.1,72.1,0,0,0-11.51,1.3c-3.061.605-6.073,1.387-9.051,2.28q-.761-3.024-1.524-6.047c-2.317-9.176-4.23-18.582-7.208-27.571-2.354-7.111-5.93-14.117-12.413-18.277C147.641-.68,139.021-.536,131.16.879c-9.219,1.66-18.267,4.723-27.228,7.4q-14.6,4.366-29.083,9.139-28.707,9.467-56.86,20.528C11.515,40.489,3.9,43.506,1.026,50.414-2.389,58.626,3.4,66.424,8.414,72.45a146.454,146.454,0,0,0,34.385,30s2.957,1.856,3.354,2.093c13.971,8.315,29.873,15.009,45.971,17.726,7.192,1.214,15.51,1.233,21.071-4.238,2.7-2.658,4.222-6.243,5.29-9.815,1.388-4.65,2.432-9.418,3.62-14.12q1.739-6.9,3.479-13.8A159.444,159.444,0,0,0,143.8,73.834c2.739-1.135,5.468-2.312,8.2-3.49,3.388,5.064,6.755,10.148,10.3,15.09a55.4,55.4,0,0,0,19.942,16.751q.845,3.35,1.691,6.7a56.469,56.469,0,0,0,3.707,11.317c1.4,2.866,3.114,5.961,6.27,7.123a10.31,10.31,0,0,0,2.414.543,7.909,7.909,0,0,0,1.4,0,10.31,10.31,0,0,0,2.414-.543c3.154-1.162,4.867-4.257,6.27-7.123a56.469,56.469,0,0,0,3.707-11.317q.845-3.348,1.691-6.7a55.4,55.4,0,0,0,19.942-16.751c3.548-4.943,6.915-10.026,10.3-15.09,2.73,1.178,5.458,2.355,8.2,3.49A159.449,159.449,0,0,0,268.462,80.3q1.741,6.9,3.479,13.8c1.188,4.7,2.232,9.471,3.62,14.12,1.068,3.572,2.587,7.157,5.289,9.815,5.562,5.471,13.88,5.452,21.072,4.238,16.1-2.717,32-9.411,45.971-17.726.4-.237,3.354-2.093,3.354-2.093a146.413,146.413,0,0,0,34.384-30c5.016-6.027,10.8-13.824,7.389-22.036m-113.035-39.8q27.331,7.913,54.218,17.26,13.437,4.671,26.748,9.693,6.655,2.507,13.278,5.108a44.926,44.926,0,0,1,9.944,4.856,12.654,12.654,0,0,1,3.465,3.612c-25.238.54-47.124,14.138-70.51,22-.991-.989-1.985-1.976-2.956-2.989A185.94,185.94,0,0,1,299.205,52.2c-4.443-6-9.13-12.188-15.91-15.7-5.78-2.991-12.3-3.657-18.325-.989a22.617,22.617,0,0,0-2.25,1.166L254.776,5.191c8.439.112,17.644,3.233,25.209,5.426M9.872,47.534a44.926,44.926,0,0,1,9.944-4.856q6.621-2.6,13.278-5.108,13.31-5.022,26.748-9.693,26.875-9.34,54.218-17.26c7.565-2.194,16.77-5.314,25.209-5.426q-3.972,15.748-7.945,31.492a22.625,22.625,0,0,0-2.25-1.166c-6.025-2.667-12.545-2-18.326.989-6.779,3.51-11.466,9.7-15.909,15.7A185.951,185.951,0,0,1,79.873,70.159c-.97,1.013-1.965,2-2.956,2.989-23.386-7.865-45.271-21.463-70.51-22a12.653,12.653,0,0,1,3.465-3.612M45.279,98.026A143.312,143.312,0,0,1,27.219,84.484,140.4,140.4,0,0,1,10.955,67.548C8.409,64.4,5.516,60.633,5.122,56.455c-.01-.109,0-.215,0-.323a2.8,2.8,0,0,0,.634.085c23.906.291,45.092,13.025,67.067,20.878A173.407,173.407,0,0,1,45.279,98.026M118.208,88.7q-1.787,7.078-3.572,14.154c-.922,3.654-1.779,7.644-4.2,10.643-4.808,5.945-13.837,4.642-20.388,3.17a141.331,141.331,0,0,1-22.4-7.053A141.012,141.012,0,0,1,50.179,101,178.385,178.385,0,0,0,78.305,78.951c9.879,3.1,20.195,5.04,30.576,4.349a77.05,77.05,0,0,0,11.1-1.619q-.886,3.506-1.769,7.014m7.267-28.81q-2.053,8.144-4.11,16.288c-1.649.405-3.31.775-4.986,1.084-11.47,2.1-22.921.8-34.04-2.418,3.463-3.559,6.829-7.215,9.973-11.059,4.337-5.3,8.057-11.155,12.686-16.211,4.3-4.7,10.135-9.021,16.84-8.681a15.664,15.664,0,0,1,8.175,3q-2.267,9-4.539,18m1.548,14.709q3.653-14.482,7.3-28.958c.81.844,1.59,1.708,2.32,2.586,4.586,5.527,8.363,11.787,12.394,17.721.029.043.059.088.088.128a218.711,218.711,0,0,1-22.106,8.523M142.15,47.012a49.98,49.98,0,0,0-6.385-7.064l1.515-6q3.578-14.2,7.16-28.391a19.2,19.2,0,0,1,14.05,9.632c3.974,6.7,5.484,14.639,7.367,22.1q2.522,9.991,5.045,19.983c-5.759,1.993-11.4,4.352-17,6.753-3.849-5.706-7.576-11.539-11.751-17.01m25.4,36.966c-3.923-4.931-7.322-10.377-10.8-15.676,5.083-2.173,10.2-4.265,15.411-6.071q.442,1.744.882,3.492,3.588,14.215,7.176,28.436.13.5.256,1.009a51.055,51.055,0,0,1-12.921-11.189m37.141,25.581c-1.015,4.017-2.178,8-4.59,11.448a4.357,4.357,0,0,1-2.371,1.646,4.587,4.587,0,0,1-1.4,0,4.358,4.358,0,0,1-2.371-1.646c-2.413-3.446-3.575-7.431-4.59-11.448q-.622-2.467-1.244-4.931c.732.256,1.459.541,2.2.759a25.438,25.438,0,0,0,6.011,1.029h1.4a25.452,25.452,0,0,0,6.011-1.029c.737-.218,1.463-.5,2.2-.759q-.622,2.464-1.244,4.931m2.775-10.995a29.123,29.123,0,0,1-9.736,2.848h-1.4a29.123,29.123,0,0,1-9.736-2.848Q184.191,89.083,181.8,79.6l-4.784-18.948c.376-.117.748-.243,1.127-.354a77.323,77.323,0,0,1,18.181-3.021c.5-.016.969-.021,1.4,0A77.323,77.323,0,0,1,215.906,60.3c.378.11.751.237,1.127.354L212.249,79.6q-2.394,9.482-4.787,18.965M226.5,83.978A51.054,51.054,0,0,1,213.58,95.167q.127-.5.256-1.009,3.588-14.22,7.176-28.436.442-1.748.882-3.492c5.215,1.806,10.327,3.9,15.411,6.071-3.482,5.3-6.882,10.745-10.8,15.676m13.646-19.956c-5.6-2.4-11.241-4.76-17-6.753q2.522-9.989,5.045-19.983c1.883-7.46,3.393-15.4,7.367-22.1a19.2,19.2,0,0,1,14.05-9.632q3.581,14.2,7.16,28.391l1.515,6a49.981,49.981,0,0,0-6.385,7.064c-4.174,5.471-7.9,11.3-11.75,17.01m4.77,2.049c.029-.04.059-.085.088-.128,4.032-5.934,7.809-12.194,12.394-17.721.73-.877,1.51-1.742,2.32-2.586q3.653,14.48,7.3,28.958a218.83,218.83,0,0,1-22.1-8.523m23.655-6.187q-2.272-9-4.539-18a15.663,15.663,0,0,1,8.175-3c6.7-.339,12.537,3.985,16.84,8.681,4.629,5.056,8.348,10.912,12.686,16.211,3.145,3.844,6.51,7.5,9.973,11.059-11.118,3.215-22.569,4.522-34.04,2.418-1.676-.309-3.337-.679-4.986-1.084q-2.056-8.146-4.11-16.288M326.4,109.609a141.379,141.379,0,0,1-22.4,7.053c-6.552,1.471-15.58,2.775-20.389-3.17-2.426-3-3.282-6.989-4.2-10.643q-1.792-7.075-3.572-14.154-.884-3.506-1.769-7.014a77.051,77.051,0,0,0,11.1,1.619c10.382.692,20.7-1.252,30.576-4.349A178.385,178.385,0,0,0,343.868,101a141.008,141.008,0,0,1-17.465,8.611m62.522-53.154c-.394,4.177-3.287,7.945-5.833,11.092a140.406,140.406,0,0,1-16.264,16.937,143.322,143.322,0,0,1-18.06,13.542A173.41,173.41,0,0,1,321.229,77.1C343.2,69.242,364.39,56.508,388.3,56.217a2.794,2.794,0,0,0,.634-.085c-.008.109,0,.215,0,.323" transform="translate(0 0)" fill="currentColor"/>
        <path id="Trazado_650" data-name="Trazado 650" d="M232.914,6.136h4.437V19.608h4.078V6.136h4.435V2.868h-12.95ZM249.3,19.6h4.078V9.538L257.142,19.6h3.29L264.19,9.561V19.6h4.063V2.86h-4.8L258.81,14.447l-4.7-11.587h-4.831Z" transform="translate(140.006 1.719)" fill="currentColor" opacity="0"/>
      </g>
    </g>
  </g>
<style xmlns="" class="darkreader darkreader--fallback">html, body, body :not(iframe) {
    background-color: #000000 !important;
    border-color: #443a2d !important;
    color: #c2c0bc !important;
}</style></svg>